<svg width="442" height="942" viewBox="0 0 442 942" fill="none" xmlns="http://www.w3.org/2000/svg">
<g clip-path="url(#clip0_3_131)">
<path d="M0 942H442V6.10352e-05H0V942Z" fill="white"/>
<path d="M87.0188 0C80.6927 34.6447 74.3665 69.2893 71.2173 111.784C68.0404 154.174 68.0128 204.414 61.5209 233.093C55.0567 261.771 42.1005 268.889 30.7743 281.344C19.4204 293.904 9.72404 311.802 4.57764e-05 329.7V0H87.0188Z" fill="#EA5C5C"/>
<path d="M354.981 942C365.341 914.263 375.7 886.527 378.186 841.834C380.673 797.246 375.313 735.597 380.479 708.907C385.645 682.113 401.336 690.277 413.353 679.915C425.37 669.657 433.685 640.979 442 612.3V942H354.981Z" fill="#EA5C5C"/>
</g>
<defs>
<clipPath id="clip0_3_131">
<rect width="442" height="942" fill="white" transform="matrix(-1 0 0 -1 442 942)"/>
</clipPath>
</defs>
</svg>
